<?xml version="1.0" encoding="utf-8"?>
<!-- Generator: Adobe Illustrator 18.1.1, SVG Export Plug-In . SVG Version: 6.00 Build 0)  -->
<svg version="1.1" id="图层_1" xmlns="http://www.w3.org/2000/svg" xmlns:xlink="http://www.w3.org/1999/xlink" x="0px" y="0px"
	 viewBox="0 0 522.8 516.5" enable-background="new 0 0 522.8 516.5" xml:space="preserve">
<path d="M142.2,3.3c18.8,0,35.3,0.4,51.8-0.1c12-0.4,24-2.9,36-3.1c21.4-0.3,42.3,4.3,63,9.4c8.8,2.2,17.5,4.9,26.3,7.2
	c2.3,0.6,4.7,0.8,7,0.9c14.6,0.6,29.2,0.6,43.7,1.9c13.8,1.3,27.5,3.7,41.2,6c10.7,1.8,21.4,3.9,32.1,6.1c2.8,0.6,5.7,1.7,8.1,3.3
	c4.3,2.8,3.9,7.4-0.3,10.3c-5.3,3.6-10.6,7.3-15.8,11.2c-1.6,1.2-3,3-4.1,4.7c-1.4,2.1-3.3,4.5-3.2,6.7c0,1.3,3.5,2.4,5.1,4
	c1.7,1.7,3.3,3.8,4.6,5.9c2.9,4.9,6.7,8.6,11.4,12c4.8,3.5,9.1,8.4,12.2,13.5c3.8,6.2,8.6,10.9,14.4,15c2.5,1.8,4.8,4.4,6.2,7.1
	c6.1,11.2,12,22.4,17.7,33.8c4.6,9.3,9.8,18.4,12.8,28.2c2.9,9.5,3.4,19.8,4.9,29.7c0.8,5.2,1.7,10.4,2.3,15.7
	c1,8.3,1.8,16.7,2.7,25c1.8,16.9-0.6,33.2-6.3,49.2c-1.9,5.3-2.5,11.2-3,16.9c-2.1,23.3-10.5,44.3-22.2,64.2
	c-4.8,8.1-8.8,16.7-14.3,24.2c-7.9,10.7-16.2,21.2-25.4,30.7c-11.2,11.5-23.3,22.3-35.7,32.5c-5.9,4.9-13.5,7.9-20.6,11.1
	c-12,5.4-24.2,10.3-36.4,15.3c-3.6,1.5-7.4,2.8-11.2,3.5c-16,3-32.1,5.3-47.9,8.8c-8.9,2-17.7,2.3-26.7,1.6
	c-3.9-0.3-7.9,0.2-11.7,0.9c-14.4,2.6-28.5,0.5-42.3-3.5c-8.3-2.4-16.6-5-24.9-7.3c-4.7-1.3-9.7-1.6-14.3-3.2
	c-12.8-4.5-25.3-9.7-38.1-14.1c-10.3-3.6-19.3-9.4-28.5-15c-4.8-3-11-4.1-15.3-7.6C87.1,457.3,77.4,448,67.6,439
	c-5.1-4.7-10.3-9.5-14.9-14.7c-2.7-3-4.4-6.8-6.5-10.2c-6.5-10.6-13.3-21.1-19.3-32c-3.1-5.7-4.8-12.2-6.9-18.3
	c-3.3-9.4-5.9-19.1-9.7-28.2c-4.7-11.1-7-22.7-8.2-34.5c-0.7-6.7-2.3-13.4-2-20c0.6-14.8,2.3-29.6,3.3-44.4c0.3-4-0.2-8-0.2-12.1
	c0-1.2,0-2.6,0.4-3.7c6.2-18.9,11.7-38.1,19-56.6c9.6-24.4,24.5-45.6,43.8-63.6c7.3-6.8,13.5-15,20.3-22.4c2.9-3.2,6.2-6.1,9.2-9.2
	c0.8-0.9,1.8-2.6,1.4-3.4c-3.1-7.1-6.3-14-9.7-20.9c-0.4-0.8-2.2-1.4-3.2-1.2c-5.6,1.1-9.8-2.8-8.4-8.4c1.1-4.3,2.6-8.7,4.7-12.6
	c1.2-2.3,3.7-4.4,6.2-5.4C97,13,106.9,8.4,118.4,8C127.1,7.7,135.6,4.6,142.2,3.3z M508.6,218.6c0.7-0.1,1.3-0.3,2-0.4
	c-2-9.1-3-18.5-6.1-27.2c-3.8-10.5-9-20.4-14-30.4c-4.5-9-10.3-17.4-14.2-26.6c-4.1-9.8-11.5-15.3-20.8-18.1
	c-12.4-3.8-24.2-2.2-34.2,6.8c-1.7,1.5-3,4.1-3.4,6.4c-1.9,12.7-3.6,25.5-5,38.3c-0.7,6.9-1.1,13.9-0.6,20.8
	c0.6,8.5,2.6,16.9,3.5,25.4c1.8,17.5,0.5,34.7-6.1,51.3c-1.7,4.3-2.6,9.2-2.7,13.9c-0.2,7.8,0.5,15.7,0.6,23.5
	c0.1,4.8-2.2,6.9-6.9,7c-1.3,0.1-2.5-0.1-3.8,0c-13.9,1.2-27.6,1.5-40.7,9c-11,6.4-24.2,9.1-36.4,13.5c-0.1,0-0.3,0.1-0.4,0.1
	c-9.1,1.4-18.2,2.5-27.3,4.3c-12.8,2.5-25.6,3.4-38.5,1.7c-4.6-0.6-9.2-2.1-13.7-1.7c-16.3,1.5-31-3.4-45.3-10.2
	c-7.9-3.8-16.2-7-24.1-10.7c-6.6-3-13-6.4-19.4-9.7c-1.3-0.7-2.9-2-4-1.8c-4.9,1.1-9.8,2.3-14.4,4.2c-2.7,1.1-4.9,3-7.7,0.8
	c-2.9-2.2-2.2-5-1-8c3-7.1,6.2-14.3,0.1-21.6c-0.7-0.8-0.9-2-1.2-3.1c-2.5-10.8-4.7-21.6-7.4-32.3c-5.1-20-3.6-39.5,1.7-59.4
	c2.3-8.9,2.8-18.8,1.8-27.9c-1.2-10.5-5.1-20.6-8.1-30.8c-0.5-1.8-2.2-3.5-3.8-4.7c-5.6-4-11.9-4.7-18.5-3.3
	c-9.3,2.1-19.9-0.3-27.4,8.1c-1.4,1.6-3.4,3.5-5.4,0.4c-0.1-0.1-1.5,0.3-1.8,0.8c-3.5,4.9-7.1,9.7-10.2,14.9
	c-9.8,16.3-17.7,33.5-22.9,51.7c-3.7,13.1-10.5,25.5-9.4,39.8c0.3,3.4-0.7,7-1,10.5c-0.9,10.6-2.3,21.2-2.3,31.8
	c0,8.5,1.7,17,2.7,25.5c1.3,10.9,3.7,21.4,7.9,31.6c4.1,9.9,7,20.4,10.6,30.5c1.8,5,3,10.5,5.9,14.7c10.7,15.1,18.2,32.3,31.3,45.9
	c8.5,8.8,16,18.7,24.4,27.7c3.2,3.4,7.4,6,11.5,8.2c7.9,4.4,16.1,8.2,24.2,12.3c2.4,1.2,4.5,3,7,3.8c19.9,6.9,38.6,17.1,59.6,20.9
	c10.8,2,21.2,6,31.9,8.9c12.1,3.2,24.2,4,36.7,1.9c4.6-0.8,9.5-0.5,14.2-0.6c4.9-0.1,9.9,0.7,14.7-0.1c18.2-3.1,36.3-6.5,54.4-10
	c3.3-0.6,6.6-1.5,9.6-3c15.4-7.9,32.3-12.4,47.1-21.7c2.6-1.6,5.8-2.4,8-4.4c14-12.3,28.5-24,40.5-38.3c6.1-7.3,13.4-13.9,18.3-21.9
	c9.5-15.3,18.3-31.1,26.2-47.3c5.5-11.3,8.8-23.5,9.5-36.3c0.4-7.1,1.3-14.4,3.5-21c5.1-15.1,7.6-30.4,6-46.3
	c-0.8-7.5-1.2-15.1-2.2-22.5C510.9,228.9,509.6,223.8,508.6,218.6z M437.5,41.3c-7.7-1.9-14.5-4-21.5-5.1
	c-12.1-1.9-24.4-3.3-36.6-4.5c-14.3-1.5-28.6-3.2-43-3.8c-10.1-0.4-20.1-0.1-29.5-4.7c-1.4-0.7-2.9-1-4.4-1.3
	c-15.3-3.1-30.6-6.2-46-9.1c-13.5-2.5-27.2-3.9-41-2.1c-10.9,1.4-21.9,2.4-32.9,3.7c-0.9,0.1-1.7,0.8-2.6,1.1
	c-2.3,0.8-4.5,1.8-6.9,2.2c-2.3,0.4-4.8-0.1-7.1,0.2c-16.6,2.2-31.9,8.3-45.9,17.3c-6.4,4.1-12.5,5.8-19.8,4.4
	c-1-0.2-2.1,0.2-3.1,0.4c0.4,0.9,0.7,1.8,1.1,2.6c4.2,10.2,10,20,12.2,30.6c4.2,19.8,6.8,39.8,12.6,59.3
	c6.2,20.8,9.7,42.4,14.8,63.6c2.8,11.6,3.8,22.9,0.5,34.7c-3.9,13.7-4.3,27.8-2.4,42c0.9,6.7,0.7,13.6,1.1,20.4
	c0,0.6,1.4,1.6,2.1,1.5c4.2-0.4,8.3-1.5,12.5-1.4c18.8,0.8,37.5,2.3,56.3,2.9c16.9,0.6,33.9,0.3,50.9,0.5
	c18.8,0.2,37.6-0.1,56.4,0.7c13.4,0.6,26.7,3.5,40,3.8c12.8,0.3,25.7-1.4,38.5-1.9c3.1-0.1,3.7-1.2,3.6-4
	c-0.2-8.9-0.2-17.9-0.1-26.8c0.2-17.3,0.7-34.5,0.8-51.8c0.1-18.4,0.9-36.5,4.9-54.6c2.3-10.2,2.7-20.8,3.8-31.2
	c1.4-13.6,3-27.3,3.9-41c1.2-18.7,8.2-34.2,23.2-45.9C435,43.4,435.8,42.7,437.5,41.3z M133.6,15.7c-0.1-0.2-0.2-0.5-0.3-0.7
	c-1.1,0.1-2.2,0.1-3.2,0.3c-6.6,1.3-13.4,2.1-19.9,4c-6.8,2-13.3,4.9-19.8,7.6c-0.6,0.2-0.8,1.5-1.1,2.4c0.9,0.2,1.7,0.5,2.6,0.5
	c4,0,8.1-0.1,12.1-0.3c2.1-0.1,4.5,0.4,6.2-0.5C118.1,24.8,125.8,20.2,133.6,15.7z"/>
<path fill="#FFFFFF" d="M508.6,218.6c1,5.2,2.4,10.3,3,15.5c1,7.5,1.4,15,2.2,22.5c1.6,15.9-0.9,31.1-6,46.3c-2.3,6.7-3.1,14-3.5,21
	c-0.7,12.8-4,25-9.5,36.3c-7.9,16.2-16.8,32-26.2,47.3c-5,8-12.2,14.6-18.3,21.9c-12.1,14.3-26.6,26-40.5,38.3c-2.2,2-5.4,2.8-8,4.4
	c-14.8,9.2-31.7,13.7-47.1,21.7c-2.9,1.5-6.3,2.3-9.6,3c-18.1,3.5-36.3,6.9-54.4,10c-4.8,0.8-9.8,0.1-14.7,0.1
	c-4.7,0.1-9.6-0.2-14.2,0.6c-12.4,2.1-24.6,1.4-36.7-1.9c-10.7-2.9-21.1-6.9-31.9-8.9c-21-3.9-39.8-14-59.6-20.9
	c-2.5-0.9-4.6-2.6-7-3.8c-8.1-4.1-16.3-7.9-24.2-12.3c-4.1-2.3-8.3-4.9-11.5-8.2c-8.4-9-15.8-18.9-24.4-27.7
	c-13.1-13.5-20.6-30.8-31.3-45.9c-3-4.2-4.2-9.7-5.9-14.7c-3.6-10.2-6.5-20.6-10.6-30.5c-4.2-10.2-6.7-20.7-7.9-31.6
	c-1-8.5-2.7-17-2.7-25.5c0-10.6,1.5-21.2,2.3-31.8c0.3-3.5,1.3-7,1-10.5c-1.1-14.3,5.6-26.7,9.4-39.8c5.2-18.3,13.1-35.5,22.9-51.7
	c3.1-5.2,6.8-10,10.2-14.9c0.3-0.5,1.7-0.9,1.8-0.8c2.1,3.1,4,1.2,5.4-0.4c7.5-8.4,18.1-6,27.4-8.1c6.5-1.5,12.9-0.8,18.5,3.3
	c1.6,1.1,3.2,2.9,3.8,4.7c3,10.2,6.8,20.4,8.1,30.8c1.1,9.1,0.6,19-1.8,27.9c-5.2,19.8-6.8,39.4-1.7,59.4
	c2.7,10.7,4.9,21.5,7.4,32.3c0.2,1.1,0.5,2.3,1.2,3.1c6,7.3,2.9,14.5-0.1,21.6c-1.3,3-1.9,5.7,1,8c2.7,2.1,5,0.3,7.7-0.8
	c4.6-1.9,9.5-3.1,14.4-4.2c1.2-0.3,2.7,1.1,4,1.8c6.5,3.2,12.9,6.6,19.4,9.7c8,3.7,16.2,6.9,24.1,10.7c14.4,6.9,29,11.7,45.3,10.2
	c4.5-0.4,9.1,1.1,13.7,1.7c12.9,1.6,25.7,0.8,38.5-1.7c9-1.8,18.2-2.9,27.3-4.3c0.1,0,0.3,0,0.4-0.1c12.2-4.4,25.4-7.1,36.4-13.5
	c13.1-7.6,26.8-7.8,40.7-9c1.3-0.1,2.5,0,3.8,0c4.8-0.2,7-2.2,6.9-7c-0.1-7.8-0.9-15.7-0.6-23.5c0.1-4.7,1-9.5,2.7-13.9
	c6.6-16.6,7.9-33.8,6.1-51.3c-0.9-8.5-2.9-16.9-3.5-25.4c-0.5-6.9-0.1-13.9,0.6-20.8c1.3-12.8,3.1-25.6,5-38.3
	c0.3-2.3,1.7-4.9,3.4-6.4c10-9,21.8-10.6,34.2-6.8c9.3,2.9,16.7,8.3,20.8,18.1c3.9,9.2,9.7,17.6,14.2,26.6c5,10,10.3,19.9,14,30.4
	c3.1,8.7,4.2,18.1,6.1,27.2C509.9,218.3,509.2,218.5,508.6,218.6z M418.3,327.6c0.6,1.2,1.2,2,1.3,2.9c1.4,7,2.7,14,3.9,21
	c0.5,3.1-0.3,5.8-3.1,7.7c-6.5,4.3-13.2,8.4-19.4,13.3c-3.4,2.7-7.6,6.3-8.2,10c-2.1,12.9-2.6,26,3.4,38.4
	c5.4,11.1,21.5,15.5,31,7.7c12.4-10.2,20.9-23.3,25.1-39c6.6-24.9,7.9-50.4,7.5-76c-0.1-9-1.5-18.1-3-27.1c-1.5-9-4.5-17.7-5.6-26.7
	c-1.6-13.5-5.5-26.5-6-40.2c-0.5-14.3,3.4-27.4,6.3-40.9c0.3-1.3,2.3-3.1,3.6-3.3c10.7-0.9,20.8,6.3,22.8,16.6
	c0.8,4.3,0.5,8.9,0.4,13.4c0,1.1-1.3,3.1-2,3.1c-2-0.1-4.9-0.3-5.9-1.6c-1.7-2.2-2.4-5.3-3.1-8c-0.5-1.9,0.4-5.1-0.6-5.8
	c-1.7-1.3-4.9-1.9-6.8-1.1c-1.6,0.6-3.4,3.7-3.2,5.6c0.6,6.8,3.1,13.1,8.2,18c6.7,6.4,20.3,3.6,22.3-5.1c2.6-11.4,1.7-22.6-5.7-32.5
	c-6.2-8.3-15.7-9.4-24.7-11c-7.2-1.3-12,2.3-14.2,9.5c-1.2,3.9-2.1,7.9-2.8,11.8c-1.5,8.8-3.9,17.7-4,26.5
	c-0.2,11.5,0.7,23.1,3.7,34.5c3.1,11.9,4.9,24.1,7,36.2c1.5,9.1,3.7,18.2,3.7,27.4c0,15-0.9,30-2.4,44.9
	c-1.9,19.4-4.7,38.8-17.7,54.7c-3.6,4.4-6.3,9.8-12.9,10.3c-9.9,0.7-13-1.7-15.2-11.7c-1.6-7.4-0.9-15.3-1.4-23
	c-0.3-4.1,1.6-6.5,4.9-8.5c5.1-3,10.2-5.9,14.9-9.4c5.9-4.4,12.9-8.9,11.3-17.7c-1.8-10.1-4.2-20.2-7-30.1c-1.5-5.1-5.9-5.9-9.9-2.5
	c-2,1.7-3.5,3.9-5.2,6c-2.4,3.1-4.3,6.8-7.2,9.2c-7.8,6.4-16,12.2-23.9,18.4c-1.2,0.9-2.3,3.2-2,4.4c0.4,1.2,2.7,2.6,4,2.5
	c2.2-0.3,4.6-1.3,6.5-2.7C398.8,349.3,410.8,341.1,418.3,327.6z M81.9,212.5c0.3,0,0.6-0.1,0.9-0.1c-0.7-5.9-0.3-12.2-2.3-17.7
	c-2.7-7.3-6.9-14.1-11.1-20.6c-8.2-12.8-28.2-11.4-35.9,1.7c-5.7,9.7-3.4,18.1,1.9,26.8c2.7,4.4,6,7.4,11.5,6.9
	c5-0.5,11.2-5.4,12-10.4c0.3-2-0.6-5.5-2.1-6.3c-2.9-1.6-3.4,1.7-4.6,3.7c-1.4,2.2-3.7,4.4-6.1,5.1c-1.1,0.4-3.4-2.5-4.9-4.1
	c-0.8-0.9-1.1-2.3-1.8-3.3c-4-6.2-1.6-11.8,2.1-16.7c3.2-4.3,8.3-5.4,13.3-4.1c2.9,0.7,6.4,2.5,7.8,4.9c4.4,7.5,9.4,15.3,11.4,23.6
	c1.7,7,0.3,15.1-0.8,22.6c-3.5,22.7-6.7,45.5,0.8,67.9c3.8,11.3,8.1,22.9,14.5,32.9c10.2,16.1,26,26.4,42.9,34.7
	c8.7,4.3,9.5,5,8.3,14.4c-0.1,0.6-0.1,1.1-0.1,1.7c-1.2,14.7-4.8,28.6-14.4,40.1c-5.6,6.8-12.1,12.8-17.9,19.4
	c-1.3,1.4-1.1,4.1-1.6,6.2c2.2,0.2,4.3,0.6,6.5,0.6c0.7,0,1.4-0.9,2-1.4c9.7-9,18.1-19.1,24.6-30.7c6-10.7,7.4-22.5,9-34.3
	c0.9-6.6,0.9-6.4,6.9-3c12,6.8,23.7,14.5,38.2,15.1c3.3,0.1,6.6,0,7.2-3.9c0.6-3.8-2.5-4.7-5.7-5.3c-4.8-0.9-9.9-1.3-14.2-3.3
	c-9.9-4.6-19.4-10-29-15.2c-1.1-0.6-2.2-2.3-2.2-3.4c0.1-9.7,0.3-19.4,0.7-29c0.1-2.9,0.3-5.7-3.3-6c-3.9-0.4-4.4,2.7-4.5,5.7
	c-0.3,7.9-0.7,15.7-0.8,23.6c0,3.2-0.8,3.5-3.5,1.9c-6.5-4-13.3-7.7-19.8-11.6c-12.9-7.7-22.4-18.2-28.8-32
	c-7.6-16.4-12.8-33.2-11.2-51.5C79.4,242.6,80.6,227.5,81.9,212.5z M254.3,487.3c13-1,27.8-1.3,42.3-3.4c7.9-1.1,15.4-5,22.9-7.9
	c2.7-1.1,4.2-3.7,2.8-6.6c-1.4-3-4.1-2.3-6.6-1.2c-0.6,0.3-1.3,0.5-1.9,0.8c-12.8,7.3-27.2,7-41.2,8.4c-1,0.1-3-1.1-3.1-1.8
	c-0.4-10.2-0.6-20.4-0.7-30.7c0-1.1,0.8-3,1.7-3.3c9.6-3.3,19.3-6.3,28.9-9.7c1.2-0.4,2.8-2,2.8-3c0-1.3-1.3-3.7-2.2-3.8
	c-3-0.3-6.3-0.2-9.2,0.7c-5.8,1.8-11.5,4.3-17.2,6.6c-3.5,1.4-5.1,0.4-4.9-3.6c0.3-8.4,0.9-16.9,0.4-25.2c-0.3-4.4,1.3-5.4,5-6.1
	c8.4-1.5,16.8-3,25.1-5.1c2.3-0.6,4.7-3,5.8-5.1c1.3-2.5-0.6-4.5-3.4-4c-7.7,1.4-15.4,2.8-23,4.7c-10.4,2.6-10.2,2.8-10.8-8.1
	c-0.5-9.9-1-19.9-2-29.8c-0.2-1.7-2.4-3.2-3.6-4.8c-1.3,1.5-3.4,2.9-3.7,4.6c-0.6,4-0.5,8.1-0.2,12.2c0.5,8.5,1.2,17.1,1.6,25.6
	c0,1-1.7,3-2.4,3c-7.9-0.6-15.8-1.6-23.7-2.5c-3-0.4-4-2.2-3.9-5.3c0.3-5.4,0.2-10.9-0.1-16.4c-0.2-2.7-1.9-5-5.1-4.3
	c-3,0.7-2.2,3.1-2.3,5.4c-0.2,7.7,0.3,15.6-1.5,22.9c-1.4,5.7-4.5,11.8-11.8,13.2c-0.9,0.2-2.2,2.2-2,3.1c0.2,1.4,1.2,3.3,2.4,4
	c3.7,1.9,7.2,0.9,9.8-2.3c3-3.8,5.6-8,8.6-11.9c0.6-0.8,2.1-1.5,3-1.4c8.4,1.2,16.8,3,25.2,3.8c4.1,0.3,5.2,1.5,5.1,5.3
	c-0.4,8.5-0.6,17.1-0.4,25.7c0.1,3.5-0.5,5.2-4.1,4.5c-9.3-1.7-18.6-3.6-28-5.1c-1.4-0.2-3.7,0.2-4.2,1.1c-0.6,1.1-0.1,3.2,0.6,4.5
	c0.5,0.9,2,1.6,3.1,1.9c10,2,20,3.9,30,6c0.9,0.2,2.2,1.3,2.2,2.1c0.3,9.9,0.6,19.9,0.6,29.8c0,0.9-1.8,2.7-2.8,2.7
	c-7.2,0.2-14.4,0.5-21.5-0.2c-8.7-0.9-17.7-1.1-25.5-6.2c-1.6-1.1-4-1.2-6.1-1.1c-1.1,0-2.9,1.2-3.1,2c-0.2,1.2,0.5,3.4,1.5,3.8
	c6,2.8,12,6.3,18.4,7.6C231.8,485.4,242.2,485.9,254.3,487.3z M387.8,443.7c-0.2-2.9-0.1-5.9-0.7-8.8c-1.4-7.2-5.6-9.9-12.9-9.6
	c-9.7,0.5-18,3.4-24.4,11.1c-2,2.4-4.4,5.1-7.2,6.2c-3.3,1.3-3.5,3.2-3.1,5.8c0.7,4.1,1.5,8.3,2.3,12.4c0.6,2.9,1.1,5.8,2.2,8.5
	c2.2,5.2,6.1,5.6,10,1.7c1.4-1.4,3.2-2.8,5.1-3.6c5-2.1,10.1-4.3,15.3-5.7C384.8,459,388.2,453.2,387.8,443.7z M141.7,419.7
	c0.4,3.2,0.8,6.4,1.3,9.6c3.3,19.7,13.5,34.4,31.4,43.5c2.1,1.1,4.5,2.3,6.7,2.1c2.3-0.2,5.6-1.5,6.4-3.2c1.5-3.1-1.9-4-4.2-4.9
	c-16.4-6.8-27.1-18.5-31.3-35.9c-3.3-13.3-2.7-14.3,11.2-15.6c9.7-0.9,16.2-5.7,19.6-14.7c0.5-1.3,0.1-3.6-0.8-4.7
	c-0.6-0.6-3.2-0.2-4.4,0.6c-1.6,1-2.8,2.7-3.8,4.4c-2.3,3.7-5.7,5.1-9.7,6c-5.3,1.1-10.6,2.7-15.9,3.8
	C143.4,411.7,140.9,414.4,141.7,419.7z M99.9,405.3c1.7-0.1,3.7,0.3,5.3-0.4c1.7-0.7,3.1-2.3,4.6-3.5c-1.5-1.3-2.9-3.5-4.6-3.8
	c-5.2-0.9-10.5-1.2-15.8-1.4c-5.7-0.2-10.2-2.4-13.7-7c-2.1-2.8-4.1-5.7-6.8-8c-1.3-1.1-3.8-0.8-5.8-1.2c0.1,1.9-0.5,4.1,0.3,5.6
	c6.5,12.4,15.6,20.7,30.9,19.1C96.1,404.6,98,405.1,99.9,405.3z M107.8,382.4c0.1,3.1-1,7.4,3.8,7.4c4.7,0,4.8-4.4,4.8-7.9
	c0-11-5.1-19.3-13.8-25.6c-4.4-3.2-9.2-6.1-15.1-5.1c-1.5,0.3-2.7,1.9-4,2.9c1.2,1.3,2.2,3.4,3.7,3.7
	C99.6,360.7,107.6,370,107.8,382.4z M330,383.9c0.1,0.2,0.2,0.5,0.3,0.7c5.3-1.8,10.6-3.5,15.8-5.5c6.2-2.3,12.2-5,16.2-10.7
	c1.5-2.2,2.8-4.6,0.2-6.7c-2.5-2-4.5-0.3-6.6,1.4c-3.1,2.5-6.2,5.4-9.8,7c-6.3,2.6-12.9,4.2-19.4,6.5c-1.4,0.5-2.5,2.1-3.7,3.2
	c1.2,1.3,2.3,2.7,3.8,3.7C327.6,383.9,328.9,383.7,330,383.9z M342.9,424.9c3.4-1.6,6.3-2.8,9.1-4.3c6-3.3,12.1-6.5,17.8-10.3
	c1.5-1,1.6-3.9,2.4-5.9c-2-0.6-3.9-1.3-5.9-1.6c-0.7-0.1-1.5,0.6-2.2,1c-7.7,4.5-15.5,8.9-23.1,13.6c-1.1,0.7-2.2,3-1.8,4
	C339.6,422.8,341.5,423.7,342.9,424.9z M339.8,402c1.7-0.2,2.9-0.1,3.9-0.6c6.3-2.8,12.7-5.7,18.9-8.8c2.9-1.4,7-3.1,4.5-7.4
	c-2.4-4.1-5.8-1.5-8.8,0.1c-0.5,0.3-1,0.6-1.4,0.8c-6.4,3.7-12.3,8.3-20.3,8.3c-1,0-2.7,1.6-2.8,2.5c-0.1,1.2,0.8,3,1.8,3.7
	C336.9,401.6,338.7,401.6,339.8,402z M190.4,358.4c-0.1-1.5,0.1-2.7-0.4-3.4c-4.1-5.7-8.3-11.4-12.7-16.9c-0.6-0.8-3.3-0.6-4.5,0.1
	c-0.8,0.5-1.2,3-0.7,4c2.1,3.9,4.3,7.8,7.1,11.2c1.9,2.4,4.3,4.2,3.9,7.9c-0.1,1,1.5,3.2,2.4,3.2c1.3,0,3-1.1,3.9-2.2
	C190.1,361.2,190.1,359.4,190.4,358.4z M357,352.1c-0.2-5.5-2.1-10.6-6.3-14.5c-1.3-1.2-3.8-1-5.8-1.4c-0.1,2-0.6,4.1-0.1,6
	c0.9,3.6,2.7,6.9,3.7,10.5c0.8,3-1.1,7.9,3.8,7.9C357.4,360.7,356.1,355.5,357,352.1z"/>
<path fill="#FFFFFF" d="M437.5,41.3c-1.7,1.4-2.5,2.2-3.4,2.8c-15,11.6-22,27.1-23.2,45.9c-0.9,13.7-2.5,27.3-3.9,41
	c-1.1,10.4-1.5,21-3.8,31.2c-4.1,18.1-4.9,36.2-4.9,54.6c-0.1,17.3-0.6,34.5-0.8,51.8c-0.1,8.9-0.1,17.9,0.1,26.8
	c0,2.8-0.5,3.8-3.6,4c-12.9,0.5-25.7,2.3-38.5,1.9c-13.4-0.3-26.7-3.2-40-3.8c-18.8-0.8-37.6-0.5-56.4-0.7
	c-17-0.1-33.9,0.1-50.9-0.5c-18.8-0.6-37.5-2.1-56.3-2.9c-4.1-0.2-8.3,1-12.5,1.4c-0.7,0.1-2-0.9-2.1-1.5
	c-0.4-6.8-0.2-13.6-1.1-20.4c-1.9-14.2-1.5-28.3,2.4-42c3.3-11.8,2.3-23-0.5-34.7c-5.1-21.1-8.6-42.8-14.8-63.6
	c-5.8-19.5-8.5-39.5-12.6-59.3c-2.2-10.6-8-20.4-12.2-30.6c-0.4-0.9-0.7-1.8-1.1-2.6c1-0.1,2.1-0.6,3.1-0.4
	c7.3,1.4,13.4-0.3,19.8-4.4c13.9-9,29.3-15.1,45.9-17.3c2.3-0.3,4.8,0.2,7.1-0.2c2.3-0.4,4.6-1.4,6.9-2.2c0.9-0.3,1.7-1,2.6-1.1
	c11-1.3,22-2.3,32.9-3.7c13.8-1.8,27.4-0.4,41,2.1c15.4,2.9,30.6,6,46,9.1c1.5,0.3,3,0.6,4.4,1.3c9.4,4.7,19.4,4.4,29.5,4.7
	c14.3,0.5,28.7,2.3,43,3.8c12.2,1.3,24.4,2.7,36.6,4.5C422.9,37.3,429.8,39.4,437.5,41.3z M305.2,100.1c0-0.2,0.1-0.5,0.1-0.7
	c4.5,0,9,0,13.5,0c0.8,0,1.7,0.6,2.5,0.9c-0.8,0.5-1.5,1-2.3,1.4c-2.2,1-4.7,1.4-6.5,2.9c-12.7,10.1-25.5,20-35.4,33.4
	c-7.4,10-15.2,19.5-19.1,31.4c-1.1,3.4-2.2,7.1-1.9,10.5c0.1,1.7,3.1,4.2,5.2,4.6c3,0.7,4.6-1.7,4.9-4.9c0.3-2.3,1-4.6,1.7-6.9
	c3.4-11.3,11.3-19.8,18-29.1c8.7-12.1,20.5-20.6,31.7-29.9c0.6-0.5,1.5-0.5,2.2-0.8c0.1,0.7,0.4,1.4,0.3,2
	c-0.4,6.4-0.6,12.9-1.2,19.3c-1,12-2.5,24-3,36c-0.2,3.7-1.2,4.5-4.4,5c-9.8,1.6-18.8,4.9-24.2,14.1c-4.7,8.1-7.7,16.8-8.8,26.1
	c-2,16.7-4.2,33.3-6.2,50c-0.2,1.9-0.4,4.2,0.5,5.7c1,1.6,3.2,3.3,4.9,3.3c1.5,0,3.4-2.1,4.3-3.7c0.9-1.6,0.8-3.8,0.9-5.8
	c0.2-3.5,1.6-5,5.5-4.9c9.4,0.1,18.8-0.6,28.2-0.5c6.2,0,12.5,0.7,18.6,1.4c2.2,0.2,4.3,1.5,6.5,1.8c9.2,1.3,9.2,1.3,8.2,10.7
	c-0.4,3.7-0.2,6.9,4.2,7.8c3.4,0.7,6-2.1,6.3-6.7c0.7-15.4,2.2-30.8,1.7-46.2c-0.4-11.9-3-23.8-5.2-35.6c-1.6-8.6-16-21.1-28.2-19
	c-3,0.5-2.7-0.6-2.5-2.8c1.4-16.2,2.7-32.4,4.1-48.5c0.2-2.3,0.7-4.6,1.1-6.9c2.5,1.2,5.7,1.7,7.3,3.6c7.2,8.3,15.2,16.3,20.7,25.8
	c6.1,10.6,12.6,21.6,13.3,34.5c0.1,1.4,1,3.3,2.2,3.9c1.6,0.9,4.2,1.7,5.6,1c1.4-0.7,2.9-3.3,2.8-4.9c-0.7-11.9-5.4-22.5-11.1-32.6
	c-3.3-5.8-7.1-11.3-10.9-16.7c-7.2-10.2-14.2-20.6-26.7-25.3c-1-0.4-1.6-1.8-2.4-2.8c1.2-0.2,2.5-0.8,3.7-0.7
	c7.9,1,15.8,2.1,23.7,3.2c3.9,0.5,7.7,1.4,11.6,1.6c3.2,0.2,6-1,6.4-4.7c0.3-3.7-2.1-5.1-5.5-5.6c-11.9-1.7-23.8-3.4-35.7-5.1
	c-2.1-0.3-3.7-0.3-3.2-3.4c2.1-13.4,4-26.8,6-40.2c0.5-3-0.2-5.5-3.1-6.5c-3.2-1.1-5.7,0.5-6.6,3.6c-1.4,4.8-2.7,9.7-3.4,14.7
	c-1.3,8.9-2.1,17.8-3,26.7c-0.3,2.8-1.4,3.8-4.3,3.6c-11.6-0.7-23.2-1.1-34.8-1.8c-3.5-0.2-6.8,0.1-7.5,4.2c-0.6,3.9,2.4,5.5,5.6,6
	C289.7,98.5,297.4,99.2,305.2,100.1z M187.4,102c13.3-0.7,27-1.3,40.6-2.3c2.5-0.2,5.4-1.7,7.3-3.5c2.9-2.7,1.1-7.6-2.7-7.9
	c-2.9-0.2-5.8,0-8.7,0.2c-12.1,1.2-24.2,2.5-36.3,3.6c-0.7,0.1-2.2-1.1-2.3-1.9c-1.3-9.6-2.2-19.2-3.7-28.8
	c-1-6.3-2.6-12.6-4.3-18.8c-0.9-3.2-3.2-5.6-7-4.3c-3.6,1.2-3.5,4.3-2.9,7.4c2,10.7,4,21.5,5.8,32.2c0.8,4.7,1.2,9.5,1.4,14.2
	c0,1.2-1.3,3.1-2.4,3.4c-4.7,1.5-9.6,2.1-14.2,3.7c-6.5,2.1-12.9,4.5-19,7.5c-1.6,0.8-3.1,4.4-2.6,6c0.6,1.6,3.7,2.8,5.9,3.1
	c1.7,0.2,3.6-1.3,5.5-1.9c8.2-2.6,16.5-5.2,24.8-7.6c0.8-0.2,2.7,0.7,2.8,1.3c1.2,10.8,4,21.9,2.8,32.5c-3.1,26.1-8.4,52-12.1,78
	c-2,14.1-2.8,28.4-3.9,42.7c-0.2,2,0.1,4.5,1.3,6c1.2,1.5,3.9,2.8,5.5,2.4c1.5-0.4,3-2.9,3.6-4.8c0.6-1.6-0.3-3.6-0.1-5.4
	c1.9-18.2,3.2-36.6,5.9-54.7c2.8-19.5,6.9-38.8,10.5-58.8c0.7,1.4,1,2.2,1.5,3c5,9.4,9.2,19.3,15.1,28.1
	c10.3,15.3,16.8,32.2,23.3,49.2c5.3,13.8,7.6,28.4,7.6,43.2c0,3.3,1,6.4,5,6.5c4.3,0.1,5.5-3,5.3-6.6c-0.5-7.8-0.4-15.8-2.3-23.3
	c-3.4-13.7-7.5-27.2-12.5-40.4c-3.8-10.2-9.2-19.8-14.3-29.5c-6.4-12.1-13.8-23.7-19.5-36.1c-4-8.7-6.1-18.2-8.8-27.5
	C188.5,109.3,188.2,106.2,187.4,102z"/>
<path fill="#FFFFFF" d="M133.6,15.7c-7.8,4.5-15.5,9.1-23.5,13.3c-1.7,0.9-4.1,0.4-6.2,0.5c-4,0.1-8.1,0.2-12.1,0.3
	c-0.9,0-1.7-0.3-2.6-0.5c0.4-0.8,0.5-2.1,1.1-2.4c6.6-2.7,13-5.6,19.8-7.6c6.5-1.9,13.2-2.7,19.9-4c1.1-0.2,2.1-0.2,3.2-0.3
	C133.5,15.2,133.6,15.5,133.6,15.7z"/>
<path d="M418.3,327.6c-7.4,13.5-19.4,21.7-31.2,30.1c-1.9,1.3-4.2,2.4-6.5,2.7c-1.3,0.2-3.7-1.3-4-2.5c-0.4-1.2,0.8-3.4,2-4.4
	c7.9-6.2,16.2-12,23.9-18.4c2.9-2.4,4.8-6.1,7.2-9.2c1.6-2.1,3.2-4.3,5.2-6c4-3.4,8.5-2.6,9.9,2.5c2.9,9.9,5.3,20,7,30.1
	c1.5,8.8-5.4,13.3-11.3,17.7c-4.7,3.5-9.9,6.4-14.9,9.4c-3.3,2-5.2,4.4-4.9,8.5c0.5,7.7-0.2,15.6,1.4,23c2.2,10,5.3,12.4,15.2,11.7
	c6.6-0.5,9.4-5.9,12.9-10.3c13-15.9,15.8-35.3,17.7-54.7c1.4-14.9,2.4-30,2.4-44.9c0-9.1-2.1-18.3-3.7-27.4
	c-2.1-12.1-3.8-24.4-7-36.2c-3-11.4-3.9-23-3.7-34.5c0.2-8.9,2.5-17.7,4-26.5c0.7-4,1.7-8,2.8-11.8c2.2-7.2,6.9-10.8,14.2-9.5
	c9,1.6,18.5,2.7,24.7,11c7.4,9.9,8.3,21.1,5.7,32.5c-2,8.8-15.6,11.6-22.3,5.1c-5.1-4.9-7.6-11.2-8.2-18c-0.2-1.8,1.6-4.9,3.2-5.6
	c1.9-0.8,5.1-0.1,6.8,1.1c1,0.8,0.1,3.9,0.6,5.8c0.7,2.8,1.4,5.8,3.1,8c1,1.3,3.9,1.5,5.9,1.6c0.7,0,2-2,2-3.1
	c0.1-4.5,0.4-9-0.4-13.4c-2-10.2-12.1-17.5-22.8-16.6c-1.3,0.1-3.3,1.9-3.6,3.3c-2.9,13.5-6.9,26.6-6.3,40.9
	c0.5,13.7,4.4,26.8,6,40.2c1.1,9,4.1,17.7,5.6,26.7c1.5,9,2.9,18,3,27.1c0.4,25.6-0.9,51.1-7.5,76c-4.1,15.6-12.7,28.8-25.1,39
	c-9.5,7.8-25.6,3.4-31-7.7c-6-12.3-5.4-25.5-3.4-38.4c0.6-3.7,4.8-7.4,8.2-10c6.1-4.8,12.8-9,19.4-13.3c2.9-1.9,3.7-4.6,3.1-7.7
	c-1.2-7-2.5-14-3.9-21C419.4,329.6,418.8,328.9,418.3,327.6z"/>
<path d="M81.9,212.5c-1.3,15.1-2.5,30.1-3.8,45.2c-1.6,18.3,3.5,35.1,11.2,51.5c6.4,13.7,15.9,24.3,28.8,32
	c6.6,3.9,13.3,7.6,19.8,11.6c2.7,1.6,3.4,1.3,3.5-1.9c0.1-7.9,0.5-15.7,0.8-23.6c0.1-3,0.5-6,4.5-5.7c3.6,0.3,3.4,3.1,3.3,6
	c-0.4,9.7-0.7,19.4-0.7,29c0,1.2,1.1,2.8,2.2,3.4c9.6,5.2,19.1,10.6,29,15.2c4.3,2,9.4,2.5,14.2,3.3c3.2,0.6,6.2,1.4,5.7,5.3
	c-0.6,3.9-3.9,4.1-7.2,3.9c-14.5-0.6-26.2-8.3-38.2-15.1c-6-3.4-6-3.6-6.9,3c-1.6,11.8-3,23.7-9,34.3c-6.6,11.6-14.9,21.7-24.6,30.7
	c-0.6,0.6-1.4,1.4-2,1.4c-2.2,0-4.3-0.4-6.5-0.6c0.5-2.1,0.4-4.7,1.6-6.2c5.8-6.6,12.3-12.6,17.9-19.4c9.6-11.5,13.2-25.5,14.4-40.1
	c0-0.6,0.1-1.1,0.1-1.7c1.2-9.4,0.4-10.2-8.3-14.4c-16.9-8.3-32.7-18.6-42.9-34.7c-6.3-10-10.7-21.6-14.5-32.9
	c-7.5-22.4-4.3-45.1-0.8-67.9c1.1-7.4,2.6-15.5,0.8-22.6c-2-8.3-7-16-11.4-23.6c-1.4-2.4-4.9-4.2-7.8-4.9c-5-1.3-10.1-0.1-13.3,4.1
	c-3.7,5-6.1,10.5-2.1,16.7c0.7,1.1,1,2.4,1.8,3.3c1.5,1.6,3.8,4.5,4.9,4.1c2.4-0.8,4.7-3,6.1-5.1c1.3-2,1.7-5.3,4.6-3.7
	c1.5,0.8,2.4,4.2,2.1,6.3c-0.8,4.9-7,9.9-12,10.4c-5.5,0.5-8.7-2.4-11.5-6.9c-5.3-8.7-7.7-17-1.9-26.8c7.7-13.1,27.6-14.4,35.9-1.7
	c4.2,6.6,8.4,13.4,11.1,20.6c2,5.4,1.6,11.7,2.3,17.7C82.5,212.4,82.2,212.4,81.9,212.5z"/>
<path d="M254.3,487.3c-12.1-1.4-22.5-1.9-32.6-4c-6.4-1.3-12.4-4.8-18.4-7.6c-0.9-0.4-1.7-2.6-1.5-3.8c0.1-0.9,2-2,3.1-2
	c2,0,4.5,0.1,6.1,1.1c7.8,5.1,16.8,5.3,25.5,6.2c7.1,0.7,14.3,0.4,21.5,0.2c1,0,2.8-1.7,2.8-2.7c0-9.9-0.2-19.9-0.6-29.8
	c0-0.7-1.3-1.9-2.2-2.1c-10-2.1-20-3.9-30-6c-1.2-0.2-2.7-0.9-3.1-1.9c-0.7-1.3-1.2-3.4-0.6-4.5c0.5-0.9,2.8-1.3,4.2-1.1
	c9.4,1.6,18.7,3.5,28,5.1c3.7,0.7,4.2-1.1,4.1-4.5c-0.2-8.5,0-17.1,0.4-25.7c0.2-3.9-0.9-5-5.1-5.3c-8.4-0.7-16.8-2.6-25.2-3.8
	c-0.9-0.1-2.4,0.6-3,1.4c-3,3.9-5.6,8.1-8.6,11.9c-2.5,3.2-6,4.2-9.8,2.3c-1.2-0.6-2.2-2.5-2.4-4c-0.1-1,1.1-3,2-3.1
	c7.4-1.4,10.4-7.5,11.8-13.2c1.8-7.3,1.4-15.3,1.5-22.9c0.1-2.3-0.7-4.8,2.3-5.4c3.2-0.7,4.9,1.6,5.1,4.3c0.4,5.4,0.4,10.9,0.1,16.4
	c-0.1,3.1,0.9,4.9,3.9,5.3c7.9,1,15.8,1.9,23.7,2.5c0.8,0.1,2.5-2,2.4-3c-0.4-8.5-1.2-17.1-1.6-25.6c-0.2-4-0.3-8.2,0.2-12.2
	c0.2-1.7,2.4-3.1,3.7-4.6c1.3,1.6,3.5,3.1,3.6,4.8c0.9,9.9,1.5,19.8,2,29.8c0.5,10.9,0.4,10.7,10.8,8.1c7.6-1.9,15.3-3.3,23-4.7
	c2.8-0.5,4.7,1.6,3.4,4c-1.1,2.2-3.5,4.6-5.8,5.1c-8.3,2.1-16.7,3.7-25.1,5.1c-3.7,0.6-5.2,1.6-5,6.1c0.5,8.4-0.1,16.8-0.4,25.2
	c-0.2,4,1.4,5,4.9,3.6c5.7-2.2,11.4-4.7,17.2-6.6c2.9-0.9,6.2-0.9,9.2-0.7c0.9,0.1,2.3,2.5,2.2,3.8c0,1.1-1.6,2.6-2.8,3
	c-9.6,3.3-19.3,6.3-28.9,9.7c-0.9,0.3-1.7,2.1-1.7,3.3c0.1,10.2,0.3,20.5,0.7,30.7c0,0.7,2.1,1.9,3.1,1.8c14-1.4,28.4-1.1,41.2-8.4
	c0.6-0.3,1.3-0.5,1.9-0.8c2.5-1.1,5.1-1.7,6.6,1.2c1.4,2.9-0.1,5.5-2.8,6.6c-7.5,2.9-15.1,6.8-22.9,7.9
	C282.1,486,267.3,486.4,254.3,487.3z"/>
<path d="M387.8,443.7c0.4,9.5-3,15.3-13.3,18.1c-5.2,1.4-10.3,3.6-15.3,5.7c-1.9,0.8-3.6,2.1-5.1,3.6c-3.9,3.9-7.9,3.5-10-1.7
	c-1.1-2.7-1.6-5.6-2.2-8.5c-0.9-4.1-1.6-8.2-2.3-12.4c-0.4-2.6-0.2-4.5,3.1-5.8c2.8-1.1,5.2-3.8,7.2-6.2
	c6.4-7.7,14.8-10.6,24.4-11.1c7.3-0.4,11.5,2.4,12.9,9.6C387.6,437.8,387.5,440.8,387.8,443.7z M379.4,442.2c0-0.5-0.2-1.9-0.2-3.3
	c0.1-4.4-2-5.7-6.3-5.2c-6.8,0.8-12.8,2.4-17.3,8c-1.6,1.9-3.8,3.3-5.6,5c-0.8,0.8-1.8,2-1.7,3c0.3,3.2,0.9,6.4,1.6,9.5
	c0.1,0.6,1.7,1.5,2.3,1.3c6.2-2,12.4-4.3,18.6-6.4C378.9,451.4,378.9,451.5,379.4,442.2z"/>
<path d="M141.7,419.7c-0.8-5.3,1.7-7.9,6.6-9c5.3-1.2,10.5-2.7,15.9-3.8c4-0.8,7.4-2.3,9.7-6c1-1.6,2.3-3.3,3.8-4.4
	c1.2-0.8,3.8-1.2,4.4-0.6c0.9,1,1.3,3.3,0.8,4.7c-3.4,9-9.9,13.8-19.6,14.7c-13.9,1.3-14.4,2.3-11.2,15.6
	c4.2,17.3,14.9,29.1,31.3,35.9c2.3,1,5.7,1.8,4.2,4.9c-0.8,1.8-4.1,3-6.4,3.2c-2.2,0.2-4.6-1-6.7-2.1c-17.9-9.1-28.1-23.8-31.4-43.5
	C142.5,426.1,142.1,422.9,141.7,419.7z"/>
<path d="M99.9,405.3c-1.9-0.2-3.7-0.6-5.5-0.4c-15.3,1.6-24.4-6.7-30.9-19.1c-0.8-1.5-0.2-3.7-0.3-5.6c2,0.3,4.5,0.1,5.8,1.2
	c2.6,2.2,4.6,5.2,6.8,8c3.5,4.6,8,6.7,13.7,7c5.3,0.2,10.6,0.5,15.8,1.4c1.7,0.3,3.1,2.5,4.6,3.8c-1.5,1.2-2.9,2.8-4.6,3.5
	C103.6,405.5,101.6,405.2,99.9,405.3z"/>
<path d="M107.8,382.4c-0.2-12.4-8.1-21.7-20.6-24.6c-1.4-0.3-2.5-2.5-3.7-3.7c1.3-1,2.5-2.6,4-2.9c5.8-1,10.6,1.8,15.1,5.1
	c8.6,6.3,13.8,14.6,13.8,25.6c0,3.5-0.1,7.9-4.8,7.9C106.7,389.8,107.9,385.5,107.8,382.4z"/>
<path d="M330,383.9c-1.1-0.2-2.5,0-3.3-0.5c-1.4-1-2.5-2.4-3.8-3.7c1.2-1.1,2.3-2.7,3.7-3.2c6.4-2.3,13.1-3.9,19.4-6.5
	c3.6-1.5,6.7-4.4,9.8-7c2.1-1.7,4.1-3.4,6.6-1.4c2.6,2.1,1.3,4.6-0.2,6.7c-4,5.7-10,8.4-16.2,10.7c-5.2,2-10.5,3.7-15.8,5.5
	C330.2,384.3,330.1,384.1,330,383.9z"/>
<path d="M342.9,424.9c-1.4-1.2-3.3-2.1-3.8-3.5c-0.4-1.1,0.7-3.3,1.8-4c7.6-4.7,15.4-9.1,23.1-13.6c0.7-0.4,1.6-1.1,2.2-1
	c2,0.4,3.9,1.1,5.9,1.6c-0.8,2-1,4.9-2.4,5.9c-5.7,3.8-11.8,7-17.8,10.3C349.2,422.1,346.3,423.3,342.9,424.9z"/>
<path d="M339.8,402c-1.1-0.3-3-0.4-4.2-1.3c-1-0.7-1.9-2.5-1.8-3.7c0.1-1,1.8-2.5,2.8-2.5c8,0.1,13.9-4.5,20.3-8.3
	c0.5-0.3,1-0.6,1.4-0.8c2.9-1.6,6.3-4.2,8.8-0.1c2.5,4.3-1.6,5.9-4.5,7.4c-6.2,3.1-12.6,5.9-18.9,8.8
	C342.7,401.8,341.5,401.7,339.8,402z"/>
<path d="M190.4,358.4c-0.3,1-0.3,2.8-1.1,3.9c-0.9,1.1-2.5,2.3-3.9,2.2c-0.9,0-2.5-2.2-2.4-3.2c0.4-3.6-1.9-5.4-3.9-7.9
	c-2.8-3.4-5-7.3-7.1-11.2c-0.5-1-0.1-3.5,0.7-4c1.1-0.7,3.8-0.9,4.5-0.1c4.5,5.4,8.6,11.2,12.7,16.9
	C190.5,355.7,190.2,356.9,190.4,358.4z"/>
<path d="M357,352.1c-0.8,3.5,0.4,8.6-4.7,8.6c-4.9,0-3-4.9-3.8-7.9c-0.9-3.6-2.7-6.9-3.7-10.5c-0.5-1.9,0-4,0.1-6
	c2,0.4,4.5,0.2,5.8,1.4C354.8,341.4,356.7,346.5,357,352.1z"/>
<path d="M305.2,100.1c-7.8-0.9-15.6-1.6-23.3-2.6c-3.2-0.4-6.3-2-5.6-6c0.7-4.1,4-4.4,7.5-4.2c11.6,0.7,23.2,1.1,34.8,1.8
	c2.9,0.2,4-0.9,4.3-3.6c0.9-8.9,1.7-17.9,3-26.7c0.7-5,2-9.8,3.4-14.7c0.9-3.1,3.3-4.7,6.6-3.6c3,1,3.6,3.5,3.1,6.5
	c-2,13.4-3.9,26.8-6,40.2c-0.5,3.1,1.2,3.1,3.2,3.4c11.9,1.7,23.8,3.4,35.7,5.1c3.3,0.5,5.8,1.9,5.5,5.6c-0.3,3.7-3.2,4.9-6.4,4.7
	c-3.9-0.3-7.8-1.1-11.6-1.6c-7.9-1.1-15.8-2.2-23.7-3.2c-1.2-0.1-2.5,0.4-3.7,0.7c0.8,0.9,1.4,2.4,2.4,2.8
	c12.5,4.7,19.5,15.1,26.7,25.3c3.8,5.4,7.6,11,10.9,16.7c5.8,10.1,10.4,20.8,11.1,32.6c0.1,1.7-1.4,4.3-2.8,4.9
	c-1.5,0.7-4-0.1-5.6-1c-1.1-0.6-2.1-2.5-2.2-3.9c-0.7-13-7.1-23.9-13.3-34.5c-5.5-9.4-13.4-17.5-20.7-25.8c-1.6-1.9-4.8-2.4-7.3-3.6
	c-0.4,2.3-0.9,4.6-1.1,6.9c-1.4,16.2-2.7,32.4-4.1,48.5c-0.2,2.1-0.6,3.3,2.5,2.8c12.2-2.1,26.6,10.4,28.2,19
	c2.2,11.8,4.9,23.7,5.2,35.6c0.5,15.4-1,30.8-1.7,46.2c-0.2,4.6-2.9,7.4-6.3,6.7c-4.4-0.9-4.6-4.1-4.2-7.8c1.1-9.4,1-9.4-8.2-10.7
	c-2.2-0.3-4.3-1.6-6.5-1.8c-6.2-0.6-12.4-1.3-18.6-1.4c-9.4-0.1-18.8,0.7-28.2,0.5c-3.9-0.1-5.3,1.4-5.5,4.9c-0.1,2,0,4.1-0.9,5.8
	c-0.9,1.6-2.8,3.7-4.3,3.7c-1.7,0-4-1.7-4.9-3.3c-0.9-1.5-0.7-3.8-0.5-5.7c2-16.7,4.2-33.3,6.2-50c1.1-9.3,4.1-18,8.8-26.1
	c5.4-9.2,14.4-12.5,24.2-14.1c3.2-0.5,4.2-1.3,4.4-5c0.5-12,2-24,3-36c0.5-6.4,0.8-12.9,1.2-19.3c0-0.7-0.2-1.3-0.3-2
	c-0.8,0.2-1.7,0.3-2.2,0.8c-11.2,9.3-23,17.8-31.7,29.9c-6.7,9.3-14.6,17.8-18,29.1c-0.7,2.3-1.4,4.5-1.7,6.9
	c-0.3,3.2-1.9,5.6-4.9,4.9c-2.1-0.5-5.1-2.9-5.2-4.6c-0.3-3.5,0.8-7.2,1.9-10.5c4-11.9,11.8-21.4,19.1-31.4
	c9.9-13.3,22.6-23.3,35.4-33.4c1.8-1.4,4.3-1.9,6.5-2.9c0.8-0.4,1.6-0.9,2.3-1.4c-0.8-0.3-1.7-0.8-2.5-0.9c-4.5-0.1-9,0-13.5,0
	C305.3,99.6,305.2,99.8,305.2,100.1z M351.8,237.3c0.2,0,0.4,0,0.5,0c-0.5-6.8-0.6-13.7-1.5-20.5c-0.9-6.8-2.1-13.6-3.8-20.2
	c-1.6-6.5-8.9-12.5-15.4-12.4c-9.1,0-18.4-0.2-26.8,3.8c-3.5,1.7-7,4.8-9.1,8.1c-4.9,7.5-6.6,16.2-7.2,25.2
	c-0.5,8.2-1.9,16.4-2.6,24.7c-0.1,1.2,1.3,3.7,2.1,3.7c8.5,0.1,17.2,0.5,25.6-0.5c8-1,15.6-0.5,23.3,1.4c3.7,0.9,7.4,1.3,11,2.3
	c2.9,0.8,3.6-0.7,3.7-2.9C351.8,245.8,351.8,241.6,351.8,237.3z"/>
<path d="M187.4,102c0.8,4.1,1.1,7.3,2,10.2c2.8,9.2,4.8,18.8,8.8,27.5c5.7,12.4,13.1,24,19.5,36.1c5.1,9.7,10.5,19.3,14.3,29.5
	c5,13.2,9.1,26.8,12.5,40.4c1.9,7.5,1.7,15.5,2.3,23.3c0.2,3.6-1,6.7-5.3,6.6c-4-0.1-5-3.2-5-6.5c0-14.9-2.3-29.4-7.6-43.2
	c-6.5-17-13-33.9-23.3-49.2c-5.9-8.8-10.2-18.7-15.1-28.1c-0.4-0.8-0.8-1.7-1.5-3c-3.6,20-7.7,39.3-10.5,58.8
	c-2.6,18.1-4,36.5-5.9,54.7c-0.2,1.8,0.7,3.8,0.1,5.4c-0.7,1.9-2.1,4.4-3.6,4.8c-1.6,0.4-4.3-1-5.5-2.4c-1.2-1.4-1.5-4-1.3-6
	c1.1-14.2,1.9-28.5,3.9-42.7c3.7-26.1,9.1-51.9,12.1-78c1.2-10.6-1.6-21.7-2.8-32.5c-0.1-0.6-2-1.5-2.8-1.3
	c-8.3,2.4-16.5,5-24.8,7.6c-1.9,0.6-3.7,2.1-5.5,1.9c-2.2-0.3-5.3-1.5-5.9-3.1c-0.6-1.6,1-5.3,2.6-6c6.1-2.9,12.5-5.3,19-7.5
	c4.6-1.5,9.5-2.2,14.2-3.7c1.1-0.3,2.5-2.3,2.4-3.4c-0.2-4.7-0.6-9.5-1.4-14.2c-1.8-10.8-3.8-21.5-5.8-32.2
	c-0.6-3.1-0.7-6.1,2.9-7.4c3.8-1.3,6.1,1.1,7,4.3c1.7,6.2,3.3,12.5,4.3,18.8c1.5,9.5,2.4,19.2,3.7,28.8c0.1,0.7,1.5,1.9,2.3,1.9
	c12.1-1.1,24.2-2.5,36.3-3.6c2.9-0.3,5.8-0.5,8.7-0.2c3.9,0.3,5.7,5.2,2.7,7.9c-1.9,1.8-4.8,3.3-7.3,3.5
	C214.5,100.7,200.8,101.3,187.4,102z"/>
<path fill="#FFFFFF" d="M379.4,442.2c-0.5,9.2-0.5,9.2-8.7,12c-6.2,2.1-12.4,4.4-18.6,6.4c-0.6,0.2-2.1-0.7-2.3-1.3
	c-0.7-3.1-1.3-6.3-1.6-9.5c-0.1-1,0.9-2.2,1.7-3c1.8-1.8,4.1-3.1,5.6-5c4.5-5.6,10.6-7.2,17.3-8c4.4-0.5,6.4,0.7,6.3,5.2
	C379.2,440.3,379.4,441.7,379.4,442.2z"/>
<path fill="#FFFFFF" d="M351.8,237.3c0,4.2,0.1,8.4,0,12.6c-0.1,2.3-0.8,3.7-3.7,2.9c-3.6-1-7.4-1.4-11-2.3
	c-7.7-1.9-15.3-2.3-23.3-1.4c-8.4,1-17.1,0.6-25.6,0.5c-0.8,0-2.2-2.5-2.1-3.7c0.7-8.2,2.1-16.4,2.6-24.7c0.5-9,2.3-17.6,7.2-25.2
	c2.1-3.3,5.6-6.4,9.1-8.1c8.4-4.1,17.7-3.8,26.8-3.8c6.5,0,13.8,6,15.4,12.4c1.7,6.6,2.9,13.4,3.8,20.2c0.9,6.8,1,13.7,1.5,20.5
	C352.1,237.3,351.9,237.3,351.8,237.3z"/>
</svg>
